# xmcd
#
# Track frame offsets:
#	150
#	11398
#	29255
#	43217
#	58975
#	73195
#	91825
#	104133
#	116708
#	135920
#	151698
#	166338
#	178632
#	196093
#	211550
#	225625
#	242559
#	256644
#	272876
#	286863
#
# Disc length: 4103 seconds
#
# Revision: 1
# Processed by: cddbd v1.5.2PL0 Copyright (c) Steve Scherf et al.
# Submitted via: audiograbber 1.83.01
#
DISCID=0b100514
DTITLE=Dolly Parton - Songs Of Love And Heartache
DYEAR=2002
DGENRE=Country
TTITLE0=Put A Little Love In Your Heart
TTITLE1=Yellow Roses
TTITLE2=(You Got Me Over) A Heartache Tonight
TTITLE3=Slow Dancing With The Moon
TTITLE4=I Will Always Love You
TTITLE5=More Than I Can Say
TTITLE6=Jolene
TTITLE7=If You Need Me
TTITLE8=What Is Is My Love
TTITLE9=Rockin Years
TTITLE10=Eagle When She Flies
TTITLE11=To Daddy
TTITLE12=Silver And Gold
TTITLE13=What Will Baby Be?
TTITLE14=Something Special
TTITLE15=Crippled Bird
TTITLE16=True Blue (Live)
TTITLE17=What A Heartache
TTITLE18=Let Her Fly
TTITLE19=He's Alive
EXTD=
EXTT0=
EXTT1=
EXTT2=
EXTT3=
EXTT4=
EXTT5=
EXTT6=
EXTT7=
EXTT8=
EXTT9=
EXTT10=
EXTT11=
EXTT12=
EXTT13=
EXTT14=
EXTT15=
EXTT16=
EXTT17=
EXTT18=
EXTT19=
PLAYORDER=
